<svg width="35" height="35" viewBox="0 0 35 35" fill="none" xmlns="http://www.w3.org/2000/svg">
<g id="Frame 69">
<g id="Group 26">
<g id="Group">
<path id="Vector" d="M7.26355 12.2544C7.26355 10.9303 7.78957 9.66037 8.72588 8.72405C9.6622 7.78774 10.9321 7.26172 12.2563 7.26172H22.2417C23.5659 7.26172 24.8358 7.78774 25.7721 8.72405C26.7084 9.66037 27.2344 10.9303 27.2344 12.2544V22.2399C27.2344 23.564 26.7084 24.8339 25.7721 25.7703C24.8358 26.7066 23.5659 27.2326 22.2417 27.2326H12.2563C10.9321 27.2326 9.6622 26.7066 8.72588 25.7703C7.78957 24.8339 7.26355 23.564 7.26355 22.2399V12.2544Z" stroke="white" stroke-width="1.81553" stroke-linecap="round" stroke-linejoin="round"/>
<path id="Vector_2" d="M22.8652 11.6309V11.6433M13.5038 17.2477C13.5038 18.2408 13.8984 19.1932 14.6006 19.8955C15.3028 20.5977 16.2553 20.9922 17.2484 20.9922C18.2415 20.9922 19.1939 20.5977 19.8962 19.8955C20.5984 19.1932 20.9929 18.2408 20.9929 17.2477C20.9929 16.2546 20.5984 15.3021 19.8962 14.5999C19.1939 13.8976 18.2415 13.5031 17.2484 13.5031C16.2553 13.5031 15.3028 13.8976 14.6006 14.5999C13.8984 15.3021 13.5038 16.2546 13.5038 17.2477Z" stroke="white" stroke-width="1.81553" stroke-linecap="round" stroke-linejoin="round"/>
</g>
</g>
</g>
</svg>
