<svg width="36" height="35" viewBox="0 0 36 35" fill="none" xmlns="http://www.w3.org/2000/svg">
<g id="Frame 71">
<path id="Vector" d="M17.8295 15.7999H27.3782C27.4701 16.3133 27.5358 16.814 27.5358 17.4858C27.5358 23.2548 23.6634 27.364 17.8287 27.364C12.2308 27.364 7.71356 22.8468 7.71356 17.2489C7.71356 11.651 12.2308 7.13379 17.8287 7.13379C20.5547 7.13379 22.8466 8.13519 24.6117 9.78142L21.8587 12.4291C21.1077 11.705 19.791 10.8621 17.8287 10.8621C14.3777 10.8621 11.559 13.7204 11.559 17.2498C11.559 20.7791 14.3777 23.6374 17.8287 23.6374C21.8326 23.6374 23.3338 20.7664 23.5715 19.2778H17.8287V15.8008L17.8295 15.7999Z" fill="white"/>
</g>
</svg>
